<svg width="61" height="61" viewBox="0 0 61 61" fill="none" xmlns="http://www.w3.org/2000/svg">
<g clip-path="url(#clip0)">
<path d="M59.9973 29.5324L42.0032 9.53891C41.6193 9.11504 41.0835 8.87512 40.5157 8.87512H28.5196C27.7319 8.87512 27.0161 9.33897 26.6922 10.0587C26.3723 10.7825 26.5043 11.6262 27.0321 12.21L43.8226 30.868L27.0321 49.5219C26.5043 50.1097 26.3683 50.9534 26.6922 51.6732C27.0161 52.3969 27.7319 52.8608 28.5196 52.8608H40.5157C41.0835 52.8608 41.6193 52.6169 42.0032 52.201L59.9973 32.2075C60.6811 31.4478 60.6811 30.2881 59.9973 29.5324Z" fill="#B9B9B9"/>
<path d="M34.0058 29.5324L16.0117 9.53891C15.6278 9.11504 15.092 8.87512 14.5242 8.87512H2.52809C1.74034 8.87512 1.02458 9.33897 0.700682 10.0587C0.380786 10.7825 0.512743 11.6262 1.04057 12.21L17.8311 30.868L1.04057 49.5219C0.512743 50.1097 0.376787 50.9534 0.700682 51.6732C1.02458 52.3969 1.74034 52.8608 2.52809 52.8608H14.5242C15.092 52.8608 15.6278 52.6169 16.0117 52.201L34.0058 32.2075C34.6896 31.4478 34.6896 30.2881 34.0058 29.5324Z" fill="#B9B9B9"/>
</g>
<defs>
<clipPath id="clip0">
<rect width="59.9837" height="59.9837" fill="white" transform="translate(0.526489 0.876099)"/>
</clipPath>
</defs>
</svg>
