<svg width="61" height="61" viewBox="0 0 61 61" fill="none" xmlns="http://www.w3.org/2000/svg">
<g clip-path="url(#clip0)">
<path d="M60.0634 29.0897L42.1005 9.13101C41.7173 8.70789 41.1824 8.46838 40.6156 8.46838H28.6404C27.854 8.46838 27.1395 8.93143 26.8162 9.64994C26.4968 10.3724 26.6286 11.2147 27.1555 11.7975L43.9168 30.423L27.1555 49.0444C26.6286 49.6312 26.4928 50.4735 26.8162 51.192C27.1395 51.9145 27.854 52.3776 28.6404 52.3776H40.6156C41.1824 52.3776 41.7173 52.1341 42.1005 51.7189L60.0634 31.7602C60.746 31.0018 60.746 29.8442 60.0634 29.0897Z" fill="#414141"/>
<path d="M34.117 29.0897L16.1542 9.13101C15.771 8.70789 15.2361 8.46838 14.6693 8.46838H2.69404C1.90767 8.46838 1.19314 8.93143 0.869812 9.64994C0.550473 10.3724 0.6822 11.2147 1.20911 11.7975L17.9704 30.423L1.20911 49.0444C0.6822 49.6312 0.546481 50.4735 0.869812 51.192C1.19314 51.9145 1.90767 52.3776 2.69404 52.3776H14.6693C15.2361 52.3776 15.771 52.1341 16.1542 51.7189L34.117 31.7602C34.7996 31.0018 34.7996 29.8442 34.117 29.0897Z" fill="#414141"/>
</g>
<defs>
<clipPath id="clip0">
<rect width="59.8794" height="59.8794" fill="white" transform="translate(0.695923 0.483276)"/>
</clipPath>
</defs>
</svg>
