<svg width="55" height="55" viewBox="0 0 55 55" fill="none" xmlns="http://www.w3.org/2000/svg">
<path d="M40.1119 0H14.888C6.67861 0 0 6.67861 0 14.888V40.1123C0 48.3213 6.67861 54.9999 14.888 54.9999H40.1123C48.3213 54.9999 54.9999 48.3213 54.9999 40.1123V14.888C54.9999 6.67861 48.3213 0 40.1119 0V0ZM51.7756 40.1123C51.7756 46.5434 46.5434 51.7756 40.1119 51.7756H14.888C8.45652 51.7756 3.22433 46.5434 3.22433 40.1123V14.888C3.22433 8.45652 8.45652 3.22433 14.888 3.22433H40.1123C46.5434 3.22433 51.7756 8.45652 51.7756 14.888V40.1123Z" fill="white"/>
<path d="M27.4999 12.4613C19.2075 12.4613 12.4613 19.2075 12.4613 27.4999C12.4613 35.7924 19.2075 42.5386 27.4999 42.5386C35.7924 42.5386 42.5386 35.7924 42.5386 27.4999C42.5386 19.2075 35.7924 12.4613 27.4999 12.4613V12.4613ZM27.4999 39.3142C20.9858 39.3142 15.6857 34.0145 15.6857 27.4999C15.6857 20.9858 20.9858 15.6857 27.4999 15.6857C34.0145 15.6857 39.3142 20.9858 39.3142 27.4999C39.3142 34.0145 34.0145 39.3142 27.4999 39.3142V39.3142Z" fill="white"/>
<path d="M42.8982 7.12045C40.4476 7.12045 38.4544 9.11405 38.4544 11.5642C38.4544 14.0147 40.4476 16.0083 42.8982 16.0083C45.3487 16.0083 47.3423 14.0147 47.3423 11.5642C47.3423 9.11363 45.3487 7.12045 42.8982 7.12045ZM42.8982 12.7836C42.2259 12.7836 41.6788 12.2364 41.6788 11.5642C41.6788 10.8915 42.2259 10.3448 42.8982 10.3448C43.5708 10.3448 44.118 10.8915 44.118 11.5642C44.118 12.2364 43.5708 12.7836 42.8982 12.7836Z" fill="white"/>
</svg>
